<?xml version="1.0" encoding="utf-8"?>
<!-- Generator: Adobe Illustrator 19.0.1, SVG Export Plug-In . SVG Version: 6.00 Build 0)  -->
<svg version="1.1" id="Слой_1" xmlns="http://www.w3.org/2000/svg" xmlns:xlink="http://www.w3.org/1999/xlink" x="0px" y="0px"
	 viewBox="-419 221 120 120" style="enable-background:new -419 221 120 120;" xml:space="preserve">
<style type="text/css">
	.st0{fill:#4169E1;}
	.st1{fill:#FFFFFF;enable-background:new    ;}
	.st2{fill:#FFFFFF;}
</style>
<path class="st0" d="M-311.3,341h-95.5c-6.8,0-12.3-5.5-12.3-12.3v-95.5c0-6.8,5.5-12.3,12.3-12.3h95.5c6.8,0,12.3,5.5,12.3,12.3
	v95.5C-299,335.5-304.5,341-311.3,341z"/>
<g>
	<g>
		<path class="st1" d="M-310.1,306.2h-17.2c-2.1,0-3.8-1.7-3.8-3.8s1.7-3.8,3.8-3.8h11.7l-9.4-27.2l-2.1,6.3c-0.7,2-2.9,3.1-4.9,2.4
			c-2-0.7-3.1-2.9-2.4-4.9l5.7-16.8c0.5-1.6,2-2.6,3.6-2.6l0,0c1.6,0,3.1,1,3.6,2.6l15,42.8c0.4,1.2,0.2,2.5-0.5,3.5
			C-307.7,305.6-308.9,306.2-310.1,306.2z"/>
		<path class="st1" d="M-339.6,306.1L-339.6,306.1c-1.7,0-3.1-1.1-3.6-2.6l-10.5-31.6l-1.8,5.7c-0.7,2-2.8,3.1-4.8,2.5
			c-2-0.7-3.1-2.8-2.5-4.8l5.5-16.8c0.5-1.6,2-2.6,3.6-2.7l0,0c1.7,0,3.1,1.1,3.6,2.6l10.6,31.8l1.1-3.2c0.7-2,2.9-3.1,4.9-2.4
			c2,0.7,3.1,2.9,2.4,4.9l-4.8,14C-336.5,305.1-338,306.1-339.6,306.1z"/>
		<path class="st2" d="M-367.3,306.1C-367.4,306.1-367.4,306.1-367.3,306.1c-1.8,0-3.2-1.2-3.7-2.8l-8.8-30.7l-10.3,30.9
			c-0.5,1.6-2,2.6-3.6,2.6c-1.6,0-3.1-1.1-3.6-2.6l-14.2-42.7c-0.7-2,0.4-4.2,2.4-4.9c2-0.7,4.2,0.4,4.9,2.4l10.5,31.7l10.5-31.7
			c0.5-1.6,2-2.6,3.6-2.6h0.1c1.7,0,3.1,1.2,3.6,2.8l8.8,30.7l0.8-2.6c0.7-2,2.8-3.1,4.8-2.4c2,0.7,3.1,2.8,2.4,4.8l-4.7,14.4
			C-364.2,305.1-365.7,306.1-367.3,306.1z"/>
	</g>
</g>
</svg>
