<?xml version="1.0" encoding="utf-8"?>
<!-- Generator: Adobe Illustrator 26.1.0, SVG Export Plug-In . SVG Version: 6.00 Build 0)  -->
<svg version="1.1" id="Слой_1" xmlns="http://www.w3.org/2000/svg" xmlns:xlink="http://www.w3.org/1999/xlink" x="0px" y="0px"
	 viewBox="0 0 48 48" style="enable-background:new 0 0 48 48;" xml:space="preserve">
<style type="text/css">
	.st0{fill:#4169E1;}
	.st1{opacity:0.5;fill:#FFFFFF;}
	.st2{opacity:0.75;fill:#FFFFFF;}
	.st3{fill:#FFFFFF;}
</style>
<g>
	<rect y="0" class="st0" width="48" height="48"/>
	<g>
		<path class="st1" d="M43.6,34.1h-6.9c-0.8,0-1.5-0.7-1.5-1.5s0.7-1.5,1.5-1.5h4.7l-3.8-10.9l-0.9,2.5c-0.3,0.8-1.1,1.2-1.9,1
			c-0.8-0.3-1.2-1.1-1-1.9l2.3-6.7c0.2-0.6,0.8-1,1.4-1c0,0,0,0,0,0c0.7,0,1.2,0.4,1.4,1L45,32c0.2,0.5,0.1,1-0.2,1.4
			C44.5,33.9,44.1,34.1,43.6,34.1z"/>
		<path class="st2" d="M31.8,34C31.8,34,31.8,34,31.8,34c-0.7,0-1.2-0.4-1.5-1.1l-4.2-12.6l-0.7,2.3c-0.3,0.8-1.1,1.2-1.9,1
			c-0.8-0.3-1.2-1.1-1-1.9l2.2-6.7c0.2-0.6,0.8-1.1,1.5-1.1c0,0,0,0,0,0c0.7,0,1.2,0.4,1.5,1.1l4.2,12.7l0.4-1.3
			c0.3-0.8,1.1-1.2,1.9-1c0.8,0.3,1.2,1.1,1,1.9L33.2,33C33,33.6,32.4,34,31.8,34z"/>
		<path class="st3" d="M20.7,34C20.7,34,20.6,34,20.7,34c-0.7,0-1.3-0.5-1.5-1.1l-3.5-12.3L11.6,33c-0.2,0.6-0.8,1.1-1.5,1.1
			S8.9,33.6,8.7,33L3,15.9c-0.3-0.8,0.2-1.7,1-1.9c0.8-0.3,1.7,0.2,1.9,1l4.2,12.7L14.3,15c0.2-0.6,0.8-1.1,1.5-1.1c0,0,0,0,0,0
			c0.7,0,1.3,0.5,1.4,1.1l3.5,12.3l0.3-1c0.3-0.8,1.1-1.2,1.9-1c0.8,0.3,1.2,1.1,1,1.9L22.1,33C21.9,33.6,21.3,34,20.7,34z"/>
	</g>
</g>
</svg>
