<?xml version="1.0" encoding="utf-8"?>
<!-- Generator: Adobe Illustrator 26.1.0, SVG Export Plug-In . SVG Version: 6.00 Build 0)  -->
<svg version="1.1" id="Слой_1" xmlns="http://www.w3.org/2000/svg" xmlns:xlink="http://www.w3.org/1999/xlink" x="0px" y="0px"
	 viewBox="0 0 16 16" style="enable-background:new 0 0 16 16;" xml:space="preserve">
<style type="text/css">
	.st0{fill:#4169E1;}
	.st1{opacity:0.5;fill:#FFFFFF;}
	.st2{opacity:0.75;fill:#FFFFFF;}
	.st3{fill:#FFFFFF;}
</style>
<g>
	<rect class="st0" width="16" height="16"/>
	<g>
		<path class="st1" d="M14.5,11.4h-2.3c-0.3,0-0.5-0.2-0.5-0.5s0.2-0.5,0.5-0.5h1.6l-1.3-3.6l-0.3,0.8c-0.1,0.3-0.4,0.4-0.6,0.3
			c-0.3-0.1-0.4-0.4-0.3-0.6L12,5c0.1-0.2,0.3-0.3,0.5-0.3c0,0,0,0,0,0c0.2,0,0.4,0.1,0.5,0.3l2,5.7c0.1,0.2,0,0.3-0.1,0.5
			C14.8,11.3,14.7,11.4,14.5,11.4z"/>
		<path class="st2" d="M10.6,11.3C10.6,11.3,10.6,11.3,10.6,11.3c-0.2,0-0.4-0.1-0.5-0.4L8.7,6.8L8.5,7.5C8.4,7.8,8.1,8,7.8,7.9
			C7.5,7.8,7.4,7.5,7.5,7.2L8.2,5c0.1-0.2,0.3-0.4,0.5-0.4c0,0,0,0,0,0c0.2,0,0.4,0.1,0.5,0.4l1.4,4.2l0.1-0.4
			c0.1-0.3,0.4-0.4,0.6-0.3c0.3,0.1,0.4,0.4,0.3,0.6L11.1,11C11,11.2,10.8,11.3,10.6,11.3z"/>
		<path class="st3" d="M6.9,11.3C6.9,11.3,6.9,11.3,6.9,11.3c-0.2,0-0.4-0.2-0.5-0.4L5.2,6.9L3.9,11c-0.1,0.2-0.3,0.4-0.5,0.4
			c-0.2,0-0.4-0.1-0.5-0.4L1,5.3C0.9,5,1.1,4.8,1.3,4.7C1.6,4.6,1.9,4.7,2,5l1.4,4.2L4.8,5C4.8,4.8,5,4.6,5.3,4.6c0,0,0,0,0,0
			c0.2,0,0.4,0.2,0.5,0.4l1.2,4.1L7,8.8c0.1-0.3,0.4-0.4,0.6-0.3C8,8.5,8.1,8.8,8,9.1L7.4,11C7.3,11.2,7.1,11.3,6.9,11.3z"/>
	</g>
</g>
</svg>
