<?xml version="1.0" encoding="utf-8"?>
<!-- Generator: Adobe Illustrator 26.1.0, SVG Export Plug-In . SVG Version: 6.00 Build 0)  -->
<svg version="1.1" id="Слой_1" xmlns="http://www.w3.org/2000/svg" xmlns:xlink="http://www.w3.org/1999/xlink" x="0px" y="0px"
	 viewBox="0 0 32 32" style="enable-background:new 0 0 32 32;" xml:space="preserve">
<style type="text/css">
	.st0{fill:#4169E1;}
	.st1{opacity:0.5;fill:#FFFFFF;}
	.st2{opacity:0.75;fill:#FFFFFF;}
	.st3{fill:#FFFFFF;}
</style>
<g>
	<rect x="0" class="st0" width="32" height="32"/>
	<g>
		<path class="st1" d="M29,22.7h-4.6c-0.6,0-1-0.5-1-1s0.5-1,1-1h3.1l-2.5-7.2l-0.6,1.7c-0.2,0.5-0.8,0.8-1.3,0.6
			c-0.5-0.2-0.8-0.8-0.6-1.3l1.5-4.5c0.1-0.4,0.5-0.7,1-0.7c0,0,0,0,0,0c0.4,0,0.8,0.3,1,0.7l4,11.4c0.1,0.3,0.1,0.7-0.1,0.9
			C29.7,22.6,29.4,22.7,29,22.7z"/>
		<path class="st2" d="M21.2,22.7C21.2,22.7,21.2,22.7,21.2,22.7c-0.4,0-0.8-0.3-1-0.7l-2.8-8.4l-0.5,1.5c-0.2,0.5-0.8,0.8-1.3,0.7
			c-0.5-0.2-0.8-0.8-0.7-1.3l1.5-4.5c0.1-0.4,0.5-0.7,1-0.7c0,0,0,0,0,0c0.4,0,0.8,0.3,1,0.7l2.8,8.5l0.3-0.9
			c0.2-0.5,0.8-0.8,1.3-0.6c0.5,0.2,0.8,0.8,0.6,1.3L22.1,22C22,22.4,21.6,22.7,21.2,22.7z"/>
		<path class="st3" d="M13.8,22.7C13.8,22.7,13.8,22.7,13.8,22.7c-0.5,0-0.9-0.3-1-0.7l-2.4-8.2L7.7,22c-0.1,0.4-0.5,0.7-1,0.7
			c-0.4,0-0.8-0.3-1-0.7L2,10.6c-0.2-0.5,0.1-1.1,0.6-1.3C3.2,9.1,3.8,9.4,3.9,10l2.8,8.4L9.5,10c0.1-0.4,0.5-0.7,1-0.7c0,0,0,0,0,0
			c0.4,0,0.8,0.3,1,0.7l2.3,8.2l0.2-0.7c0.2-0.5,0.8-0.8,1.3-0.7c0.5,0.2,0.8,0.8,0.7,1.3L14.7,22C14.6,22.4,14.2,22.7,13.8,22.7z"
			/>
	</g>
</g>
</svg>
