<?xml version="1.0" encoding="utf-8"?>
<!-- Generator: Adobe Illustrator 26.1.0, SVG Export Plug-In . SVG Version: 6.00 Build 0)  -->
<svg version="1.1" id="Слой_1" xmlns="http://www.w3.org/2000/svg" xmlns:xlink="http://www.w3.org/1999/xlink" x="0px" y="0px"
	 viewBox="0 0 120 120" style="enable-background:new 0 0 120 120;" xml:space="preserve">
<style type="text/css">
	.st0{opacity:0.5;fill:#4169E1;enable-background:new    ;}
	.st1{opacity:0.75;fill:#4169E1;enable-background:new    ;}
	.st2{fill:#4169E1;}
</style>
<g>
	<g>
		<path class="st0" d="M108.9,85.2H91.7c-2.1,0-3.8-1.7-3.8-3.8c0-2.1,1.7-3.8,3.8-3.8h11.7L94,50.4l-2.1,6.3
			c-0.7,2-2.9,3.1-4.9,2.4c-2-0.7-3.1-2.9-2.4-4.9l5.7-16.8c0.5-1.6,2-2.6,3.6-2.6l0,0c1.6,0,3.1,1,3.6,2.6l15,42.8
			c0.4,1.2,0.2,2.5-0.5,3.5C111.3,84.6,110.1,85.2,108.9,85.2z"/>
		<path class="st1" d="M79.4,85.1L79.4,85.1c-1.7,0-3.1-1.1-3.6-2.6L65.3,50.9l-1.8,5.7c-0.7,2-2.8,3.1-4.8,2.5
			c-2-0.7-3.1-2.8-2.5-4.8l5.5-16.8c0.5-1.6,2-2.6,3.6-2.7l0,0c1.7,0,3.1,1.1,3.6,2.6l10.6,31.8l1.1-3.2c0.7-2,2.9-3.1,4.9-2.4
			s3.1,2.9,2.4,4.9l-4.8,14C82.5,84.1,81,85.1,79.4,85.1z"/>
		<path class="st2" d="M51.7,85.1C51.6,85.1,51.6,85.1,51.7,85.1c-1.8,0-3.2-1.2-3.7-2.8l-8.8-30.7L28.9,82.5
			c-0.5,1.6-2,2.6-3.6,2.6s-3.1-1.1-3.6-2.6L7.5,39.8c-0.7-2,0.4-4.2,2.4-4.9s4.2,0.4,4.9,2.4L25.3,69l10.5-31.7
			c0.5-1.6,2-2.6,3.6-2.6h0.1c1.7,0,3.1,1.2,3.6,2.8l8.8,30.7l0.8-2.6c0.7-2,2.8-3.1,4.8-2.4c2,0.7,3.1,2.8,2.4,4.8l-4.7,14.4
			C54.8,84.1,53.3,85.1,51.7,85.1z"/>
	</g>
</g>
</svg>
